{"title":"GAMER (hindi-eng)dual audio.DVDRip.aaaevilacharya","uid":5850421,"size":960222195,"categoryP":"video","categoryS":"movies","magnet":"?xt=urn:btih:c402c97e6d9132ee637336c1e41ff5931bd538b9&amp;dn=GAMER+%28hindi-eng%29dual+audio.DVDRip.aaaevilacharya&amp;tr=udp%3A%2F%2Ftracker.openbittorrent.com%3A80&amp;tr=udp%3A%2F%2Fopen.demonii.com%3A1337&amp;tr=udp%3A%2F%2Ftracker.coppersurfer.tk%3A6969&amp;tr=udp%3A%2F%2Fexodus.desync.com%3A6969","seeders":0,"leechers":0,"uploader":"achaevil","files":1,"time":1285362157,"description":"General\nComplete name : GAMER.dual audio.(hindi-eng)DVDRip.aaaevilacharya\nFormat : Matroska\nFile size : 916 MiB\nDuration : 1h 34mn\nOverall bit rate : 1 350 Kbps\nEncoded date : UTC 2010-09-25 04:38:26\nWriting library : libebml v0.7.7 + libmatroska v0.8.1\n\nVideo\nID : 1\nFormat : MPEG-4 Visual\nFormat profile : Advanced Simple@L5\nFormat settings, BVOP : Yes\nFormat settings, QPel : No\nFormat settings, GMC : No warppoints\nFormat settings, Matrix : Default (H.263)\nCodec ID : XVID\nCodec ID/Hint : XviD\nDuration : 1h 34mn\nBit rate : 1 067 Kbps\nWidth : 1 280 pixels\nHeight : 690 pixels\nDisplay aspect ratio : 1.855\nFrame rate : 23.976 fps\nColor space : YUV\nChroma subsampling : 4:2:0\nBit depth : 8 bits\nScan type : Progressive\nBits/(Pixel*Frame) : 0.050\nStream size : 724 MiB (79%)\nTitle : gamer\nLanguage : Hindi\n\n\nAudio #1 HINDI.****\nID : 2\nFormat : MPEG Audio\nFormat version : Version 1\nFormat profile : Layer 3\nMode : Joint stereo\nMode extension : MS Stereo\nCodec ID : A_MPEG/L3\nCodec ID/Hint : MP3\nDuration : 1h 34mn\nBit rate mode : Constant\nBit rate : 128 Kbps\nChannel(s) : 2 channels\nSampling rate : 48.0 KHz\nStream size : 86.8 MiB (9%)\nTitle : hindi evil\nWriting library : LAME3.98r\n\n\nAudio #2 ENG.\nID : 3\nFormat : MPEG Audio\nFormat version : Version 1\nFormat profile : Layer 3\nMode : Joint stereo\nMode extension : MS Stereo\nCodec ID : A_MPEG/L3\nCodec ID/Hint : MP3\nDuration : 1h 34mn\nBit rate mode : Constant\nBit rate : 128 Kbps\nChannel(s) : 2 channels\nSampling rate : 48.0 KHz\nStream size : 86.8 MiB (9%)\nTitle : eng evil\nWriting library : LAME3.98r\n\n","torrent":{"xt":"urn:btih:c402c97e6d9132ee637336c1e41ff5931bd538b9","amp;dn":"GAMER+%28hindi-eng%29dual+audio.DVDRip.aaaevilacharya","amp;tr":["udp%3A%2F%2Ftracker.openbittorrent.com%3A80","udp%3A%2F%2Fopen.demonii.com%3A1337","udp%3A%2F%2Ftracker.coppersurfer.tk%3A6969","udp%3A%2F%2Fexodus.desync.com%3A6969"],"infoHash":"c402c97e6d9132ee637336c1e41ff5931bd538b9","infoHashBuffer":{"type":"Buffer","data":[196,2,201,126,109,145,50,238,99,115,54,193,228,31,245,147,27,213,56,185]},"announce":[],"urlList":[]}}